<?xml version="1.0" encoding="utf-8"?>
<!-- Generator: Adobe Illustrator 15.0.0, SVG Export Plug-In . SVG Version: 6.00 Build 0)  -->
<!DOCTYPE svg PUBLIC "-//W3C//DTD SVG 1.1//EN" "http://www.w3.org/Graphics/SVG/1.1/DTD/svg11.dtd">
<svg version="1.1" id="Layer_1" xmlns="http://www.w3.org/2000/svg" xmlns:xlink="http://www.w3.org/1999/xlink" x="0px" y="0px"
	 width="100px" height="100px" viewBox="0 0 100 100" enable-background="new 0 0 100 100" xml:space="preserve">
<g opacity="0.8">
	<linearGradient id="SVGID_1_" gradientUnits="userSpaceOnUse" x1="48.3804" y1="265.7227" x2="48.3803" y2="-679.2331">
		<stop  offset="0" style="stop-color:#121212"/>
		<stop  offset="0.1595" style="stop-color:#121212"/>
		<stop  offset="0.5399" style="stop-color:#464646"/>
		<stop  offset="0.9509" style="stop-color:#000000"/>
	</linearGradient>
	<path fill="url(#SVGID_1_)" d="M48.67,62.088c2.247,2.497,5.587,2.807,5.964,2.835l4.579,0.008c1.703,2.199,4.05,4.445,4.368,4.744
		l0.047,0.048c5.039,4.571,9.109,6.179,9.226,6.226c4.351,1.775,8.93,2.677,13.611,2.677c4.034,0,6.732-0.681,7.27-0.826
		c8.464-2.076,15.112-8.497,15.382-8.764c5.628-5.458,7.657-11.657,7.942-12.598c1.858-5.335,1.805-9.914,1.787-10.569
		c-0.033-7.879-2.782-13.43-3.104-14.05c-2.532-5.088-5.846-8.427-7.99-10.292c0.334-0.991,0.248-1.783,0.248-2.032V-0.827
		l-1.434-1.193c0,0-13.434,1.405-13.577,1.421l-0.05,0.01c-7.25,1.008-11.207,3.894-11.899,4.434
		c-3.177,2.345-5.152,5.099-6.392,7.632c-1.346-1.801-2.397-2.873-2.461-2.937C67.074,3.214,59.677,0.909,59.422,0.83
		c-3.403-1.111-6.849-1.674-10.239-1.674c-3.139,0-5.21,0.493-5.728,0.629c-5.827,1.329-10.17,3.981-12.679,5.854
		c-5.694-4.239-12.625-6.545-19.784-6.545c-18.241,0-33.082,14.791-33.082,32.973c0,8.322,3.12,16.267,8.782,22.374
		c3.64,3.923,8.116,6.864,13.052,8.643l-6.563,3.595l1.618,2.748c2.312,3.928,6.825,8.217,7.016,8.397l0.133-0.089
		C9.412,84.026,18.167,84,19.141,84h0.023c8.371,0,13.721-3.257,14.772-4.003c6.803-4.066,9.884-10.946,10.289-11.923
		c1.563-3.373,2.123-7.809,2.306-9.893C47.121,60.263,48.336,61.727,48.67,62.088z M47,37v-6.922c0-0.847,0.3-1.672,0.467-1.891
		c1.056-1.294,2.397-1.352,2.442-1.354c1.455,0,2.265,0.749,2.461,0.945l-0.018,0.144C52.915,28.525,53,29.512,53,29.858V37H47z
		 M43,30.078v26.868c0,0-0.016,6.054-1.87,9.991c0,0-2.592,6.896-9.022,10.68c0,0-4.774,3.705-13.009,3.705
		c0,0-8.265,0.094-15.189-5.744c0,0-4.343-4.125-6.46-7.721l10.989-6.019L6.523,60.86c0,0-1.581,0.484-2.231,0.337
		C-9.045,58.166-19,46.276-19,32.067C-19,15.565-5.572,2.187,10.992,2.187c6.281,0,12.11,1.924,16.927,5.21
		c0.334,0.23,1.033,1.073,1.033,1.073l1.842,1.158c1.241-1.151,5.986-5.166,13.41-6.841c0,0,5.982-1.722,14.257,0.981
		c0,0,6.886,2.104,11.5,6.911c0,0,1.808,1.825,3.667,4.748c0.06,0.095,0.31,2.579,0.37,2.678l1.69,1.125
		c0.055-1.257,0.648-8.09,7.247-12.927c0,0,3.446-2.869,10.37-3.833c0,0,4.693-0.449,11.693-0.277v17.221
		c0,0,0.054,1.623-1.232,2.91c0,0,5.361,3.234,9.17,10.896c0,0,2.771,5.163,2.791,12.702c0,0,0.198,4.382-1.625,9.563
		c0,0-1.696,6.046-7.146,11.331c0,0-6.244,6.101-14.007,7.988c0,0-8.644,2.478-18.928-1.721c0,0-3.646-1.413-8.316-5.653
		c0,0-3.502-3.321-4.896-5.593l-1.739-0.897L58.56,62h-3.702c0,0-2.58-0.256-4.057-1.922c0,0-1.801-1.777-1.801-4.145V40h7V29.751
		c0,0,0.069-2.305-1.458-3.938c0,0-3.126-3.178-6.348-3.178c0,0-1.553,1.06-3.622,3.597C44.572,26.232,43,27.883,43,30.078z"/>
	<linearGradient id="SVGID_2_" gradientUnits="userSpaceOnUse" x1="48.4141" y1="229.833" x2="48.414" y2="-563.7316">
		<stop  offset="0" style="stop-color:#121212"/>
		<stop  offset="0.1595" style="stop-color:#121212"/>
		<stop  offset="0.5399" style="stop-color:#464646"/>
		<stop  offset="0.9509" style="stop-color:#000000"/>
	</linearGradient>
	<path fill="url(#SVGID_2_)" d="M59.92,27.399c0.315,1.328,0.08,2.695,0.08,2.695v1.66V43h-2.52H53v4h0.422l-1.615,8.227
		C51.854,55.728,53.723,58,55.147,58h7.973c3.478,6,10.798,10.664,10.798,10.664c9.016,4.332,16.277,3.015,20.404,1.507
		c0.037-0.013,0.079-0.063,0.117-0.077c0.024-0.01,0.051-0.034,0.074-0.044c1.438-0.535,3.759-1.603,6.435-3.555
		c11.772-8.242,10.671-21.385,10.671-21.385c-0.031-4.138-1.082-7.659-2.556-10.57c-1.057-1.998-2.192-3.583-2.933-4.534
		c-0.496-0.615-0.995-1.184-1.486-1.703c-3.032-3.068-6.794-4.703-6.794-4.703c-1.477-0.738-1.258-1.855-1.258-1.855
		c0-1.802,2.034-1.745,2.034-1.745h1.309c0.091,0,0.181,0,0.274,0c0.005,0,0.005,0,0.005,0c0.031,0,0.059-0.139,0.087-0.138
		c0-0.001,0.453-0.071,0.453-0.071S102,19.717,102,19.123V9.696V6.308l-2.055-1.322L98.179,6h-0.013
		c-0.222,0-0.44,0.159-0.654,0.161c-0.845,0.023-1.573,0.142-2.123,0.179C79.282,7.622,79.773,20.086,79.773,20.086
		c-0.038,1.472,0.145,2.833,0.488,4.054c1.841,5.67,8.684,9.337,8.684,9.337c1.684,0.891,2.948,1.759,3.686,2.299
		c2.669,1.752,4.601,4.542,5.22,7.794c0.084,0.484,0.26,1.673,0.188,2.944c0,0,0.005-0.002,0.005-0.005
		c-0.354,6.318-5.586,11.33-11.989,11.33c-6.473,0-11.752-5.119-12.005-11.527C74.018,45.804,74,45.424,74,45.424v-1.297
		c0-0.077,0-0.121,0-0.121V30.374c0-9.517-6.402-16.196-6.402-16.196c-6.77-7.595-17.746-7.869-17.746-7.869
		c-4.966,0-9.113,1.6-12.269,3.477c-0.075,0.033-0.116,0.052-0.116,0.052c-2.244,1.235-4.035,2.757-5.436,4.269
		c-0.044,0.046-0.09,0.09-0.133,0.134c-0.024,0.032-0.051,0.062-0.076,0.094c-2.134,2.365-3.32,4.661-3.804,5.727
		c-0.021,0.038-0.034,0.063-0.034,0.063c-0.017,0.041-0.033,0.081-0.048,0.122c-0.122,0.277-0.179,0.432-0.179,0.432
		c-0.012,0.035-0.022,0.069-0.033,0.101c-0.748,1.952-1.228,3.785-1.532,5.411c-0.198,1.422-0.305,3.094-0.366,4.416
		c-0.008,0.271-0.014,0.535-0.019,0.786c-0.12,5.945-4.267,9.399-4.267,9.399C14.447,46.31,8.55,43.457,8.55,43.457
		c-3.702-1.536-5.89-3.751-7.156-6.057c-0.016-0.042-0.025-0.064-0.025-0.064c-4.344-10.5,5.116-15.758,5.116-15.758
		c0.05-0.029,0.1-0.057,0.148-0.085c3.479-1.773,6.894-1.643,6.894-1.643c3.078,0,4.647,1.24,6.43,2.731
		c0.267,0.225,1.648,0.901,1.874,1.108c0.184,0.116,0.592,0.327,1,0.236c0,0,0.614-0.122,0.818-0.899c0,0,0.002,0,0.007,0.005
		c0.504-2.352,1.418-4.543,2.3-6.284c0.588-1.06,1.531-2.753,2.012-3.574c0,0-1.735-2.375-7.728-4.914l-0.009,0.006
		c-1.462-0.609-2.406-0.858-2.406-0.858C8.587,4.569-0.472,8.871-0.472,8.871c-11.438,6.038-13.542,16.653-13.542,16.653
		c-2.654,11.073,2.104,18.482,2.104,18.482c7.23,13.816,22.523,13.724,22.523,13.724C20.13,57.729,26,52.698,26,52.698V59
		c0,0-0.218,0-0.223,0c0,0-0.018,1.044-0.328,1.754c-0.349,0.718-0.934,1.201-1.599,1.619c-1.429,0.971-3.079,1.163-3.664,1.214
		c-0.162,0.023-0.255,0.017-0.255,0.017c-1.34,0-2.395-0.209-3.226-0.525c-0.638-0.199-1.257-0.133-1.682-0.034
		c-0.312,0.077-0.6,0.209-0.752,0.288l-10.73,5.89c1.042,1.434,1.843,2.144,1.843,2.144c6.403,6.223,14.089,5.855,14.089,5.855
		c8.785,0,14-5.765,14-5.765c3.084-2.936,4.57-6.657,5.287-9.484l-0.224,0.021C39.063,59.754,39,57.532,39,56.631V30.372
		c0-1.401,0.435-2.614,0.813-3.669c1.439-4.113,5.341-7.064,9.947-7.064C54.617,19.638,58.695,22.926,59.92,27.399z"/>
	<linearGradient id="SVGID_3_" gradientUnits="userSpaceOnUse" x1="75.9023" y1="42.4927" x2="75.9023" y2="40.8674">
		<stop  offset="0" style="stop-color:#121212"/>
		<stop  offset="0.1595" style="stop-color:#121212"/>
		<stop  offset="0.5399" style="stop-color:#464646"/>
		<stop  offset="0.9509" style="stop-color:#000000"/>
	</linearGradient>
	<path fill="url(#SVGID_3_)" d="M75.81,42.104c0-0.083,0.043,0.077,0.043,0.077h0.146l-0.192-0.148
		C75.807,42.028,75.81,42.104,75.81,42.104z"/>
	<linearGradient id="SVGID_4_" gradientUnits="userSpaceOnUse" x1="85.7266" y1="97.3555" x2="85.7266" y2="-125.7942">
		<stop  offset="0" style="stop-color:#121212"/>
		<stop  offset="0.1595" style="stop-color:#121212"/>
		<stop  offset="0.5399" style="stop-color:#464646"/>
		<stop  offset="0.9509" style="stop-color:#000000"/>
	</linearGradient>
	<path fill="url(#SVGID_4_)" d="M91.899,54.398c0.064,0.056,0.106,0.055,0.141,0.02c0.042-0.045,0.042-0.086,0.042-0.172
		l-3.203-7.519c0.001-0.126,0.001-0.257,0.087-0.298l6.489-4.486l-1.649-1.121l-6.42,1.037c-0.089,0-0.214,0-0.257-0.17
		l-2.307-6.238c-0.087-0.17-0.215-0.258-0.215-0.258l-1.592-1.064l0.623,3.371L81.949,42h-5.884h-0.066l15.908,12.372L91.899,54.398
		z"/>
	<linearGradient id="SVGID_5_" gradientUnits="userSpaceOnUse" x1="-42.3198" y1="136.9336" x2="-42.3198" y2="-44.7208">
		<stop  offset="0" style="stop-color:#121212"/>
		<stop  offset="0.1595" style="stop-color:#121212"/>
		<stop  offset="0.5399" style="stop-color:#464646"/>
		<stop  offset="0.9509" style="stop-color:#000000"/>
	</linearGradient>
	<path fill="url(#SVGID_5_)" d="M-33.296,93.98c0.03-0.072-0.027-0.121-0.112-0.208l-7.077-6.799
		c-0.214-0.188-2.287-1.51-2.714-1.51L-49.233,86h0.256c0.072,0,0.145,0,0.216,0h0.2c0.143,0,0.272,0.59,0.344,0.672l3.93,5.242
		l1.171,0.345c0,0,1.276,0.83,1.313,0.877L-39.72,94h3.49l-4.5,1.608C-40.767,95.655-40.928,96-41.323,96h-0.873l-0.792,0.271
		l-6.436,4.487l-1.927,0.493l2.117,0.748h7.804c0.428,0,0.73-0.053,0.944-0.237l7.077-6.784c0.085-0.086,0.143-0.223,0.112-0.293
		C-33.303,94.641-34.105,94-34.711,94h1.074C-33.409,94-33.308,94.055-33.296,93.98z"/>
	<linearGradient id="SVGID_6_" gradientUnits="userSpaceOnUse" x1="-24.2817" y1="128.1084" x2="-24.2817" y2="-16.1809">
		<stop  offset="0" style="stop-color:#121212"/>
		<stop  offset="0.1595" style="stop-color:#121212"/>
		<stop  offset="0.5399" style="stop-color:#464646"/>
		<stop  offset="0.9509" style="stop-color:#000000"/>
	</linearGradient>
	<path fill="url(#SVGID_6_)" d="M-20.394,92.494l-3.552,0.871l-2.028,1.535l2.028,1.1h3.017c-0.164,1-0.552,1.172-1.165,1.695
		c-0.611,0.531-1.332,0.679-2.167,0.679c-0.657,0-1.261-0.253-1.812-0.636c-0.554-0.383-0.988-0.931-1.307-1.58
		c-0.321-0.651-0.48-1.377-0.48-2.142c0-0.758,0.158-1.466,0.474-2.115c0.318-0.648,0.753-1.167,1.307-1.552
		c0.554-0.382,1.16-0.576,1.817-0.576c0.686,0,1.27,0.529,1.011,1.203L-21.228,92h2.494c-0.184,0-0.449-1.331-0.802-1.843
		c-0.351-0.515-0.766-1.017-1.244-1.36c-0.477-0.346-2.518-1.35-3.102-1.535c-0.582-0.186,0.298,0.403-0.382,0.403
		c-1.087,0-2.083,0.271-2.992,0.834c-0.911,0.562-1.625,1.327-2.145,2.3c-0.52,0.971-0.78,2.037-0.78,3.203
		c0,1.167,0.26,2.236,0.78,3.21c0.52,0.974-0.466,1.088,0.442,1.651c0.908,0.562,3.607,1.497,4.694,1.497
		c1.131,0,2.143-0.276,3.034-0.836c0.892-0.556,1.591-1.363,2.093-2.421c0.503-1.057,0.754-2.302,0.754-3.738L-20.394,92.494z"/>
	<linearGradient id="SVGID_7_" gradientUnits="userSpaceOnUse" x1="-13.3589" y1="127.7207" x2="-13.3589" y2="-16.4292">
		<stop  offset="0" style="stop-color:#121212"/>
		<stop  offset="0.1595" style="stop-color:#121212"/>
		<stop  offset="0.5399" style="stop-color:#464646"/>
		<stop  offset="0.9509" style="stop-color:#000000"/>
	</linearGradient>
	<path fill="url(#SVGID_7_)" d="M-9.107,88.906c-0.399-0.396-0.876-0.707-1.431-0.918c-0.555-0.216-1.694-0.903-2.68-1.101
		c-0.601-0.118-0.278,0.885-0.827,1.101c-0.549,0.211-1.029,0.521-1.44,0.918c-0.4,0.4-0.705,0.877-0.913,1.42
		c-0.21,0.549-0.314,1.129-0.314,1.745l-2.006,7.153l2.006,0.775H-14v-3h3.801l-1.982,2.354l1.982,0.646H-8v-7.929
		c0-0.616-0.044-1.196-0.252-1.745C-8.463,89.783-8.706,89.307-9.107,88.906z M-10,92.024V94h-4v-1.976
		c0-0.432-0.113-0.804,0.056-1.119c0.17-0.312,0.311-0.556,0.625-0.727c0.314-0.169,0.635-0.253,1.063-0.253
		c0.435,0,0.784,0.084,1.102,0.253c0.315,0.171,0.646,0.414,0.814,0.727C-10.171,91.221-10,91.593-10,92.024z"/>
	<linearGradient id="SVGID_8_" gradientUnits="userSpaceOnUse" x1="2.9409" y1="127.6777" x2="2.9409" y2="-16.2469">
		<stop  offset="0" style="stop-color:#121212"/>
		<stop  offset="0.1595" style="stop-color:#121212"/>
		<stop  offset="0.5399" style="stop-color:#464646"/>
		<stop  offset="0.9509" style="stop-color:#000000"/>
	</linearGradient>
	<path fill="url(#SVGID_8_)" d="M11.823,90.381c-0.229-0.537-0.551-1.012-0.965-1.418c-0.415-0.407-0.898-0.728-1.449-0.955
		c-0.553-0.229-1.624-0.923-2.538-1.095c-0.819-0.153-0.859,0.952-1.554,1.351c-0.694,0.401-1.242,0.941-1.639,1.617
		c-0.397,0.679-0.596,1.426-0.596,2.242l-1.521,5.681l-1.798-0.792c-0.547,0-2.926,0.73-3.159,0.479C-3.63,97.238-4,96.833-4,96.267
		v-8.292l-1.301-0.89L-5,87.975v8.326c0,1.188-1.802,1.42-1.139,2.109C-5.473,99.1-3.206,100-1.988,100H1v-0.473L3.083,100H5v-3
		h2.794c0.748,0,1.462-0.4,2.138-0.795c0.677-0.396,1.22-1.036,1.626-1.721c0.405-0.688,0.608-1.49,0.608-2.314
		C12.167,91.549,12.052,90.918,11.823,90.381z M9.179,93.562C8.747,94.01,8.222,94,7.607,94H5v-1.824
		c0-0.638,0.416-1.182,0.851-1.632c0.43-0.45,1.052-0.677,1.656-0.677c0.615,0,1.189,0.227,1.622,0.677
		c0.432,0.45,0.674,0.877,0.674,1.515C9.803,92.692,9.611,93.115,9.179,93.562z"/>
	<linearGradient id="SVGID_9_" gradientUnits="userSpaceOnUse" x1="13.9302" y1="127.3623" x2="13.9302" y2="-14.9209">
		<stop  offset="0" style="stop-color:#121212"/>
		<stop  offset="0.1595" style="stop-color:#121212"/>
		<stop  offset="0.5399" style="stop-color:#464646"/>
		<stop  offset="0.9509" style="stop-color:#000000"/>
	</linearGradient>
	<polygon fill="url(#SVGID_9_)" points="11.86,99.225 13.76,100 16,100 16,87.975 14.158,87.048 	"/>
	<linearGradient id="SVGID_10_" gradientUnits="userSpaceOnUse" x1="21.7261" y1="127.6367" x2="21.7261" y2="-16.0733">
		<stop  offset="0" style="stop-color:#121212"/>
		<stop  offset="0.1595" style="stop-color:#121212"/>
		<stop  offset="0.5399" style="stop-color:#464646"/>
		<stop  offset="0.9509" style="stop-color:#000000"/>
	</linearGradient>
	<path fill="url(#SVGID_10_)" d="M25.942,88.906c-0.399-0.396-2.961-1.773-3.809-1.975c-0.596-0.14-0.581,0.841-1.129,1.057
		c-0.55,0.211-1.03,0.521-1.441,0.918c-0.4,0.4-0.705,0.877-0.913,1.42c-0.209,0.549-0.312,1.129-0.312,1.745l-1.886,7.153
		L18.338,100H21v-7.979c0-0.429-0.088-0.803,0.08-1.116c0.169-0.314,0.323-0.555,0.638-0.726c0.312-0.169,0.641-0.253,1.07-0.253
		c0.434,0,0.787,0.084,1.104,0.253c0.316,0.171,0.549,0.411,0.716,0.726c0.169,0.313,0.248,0.688,0.248,1.116l-1.866,7.204
		L24.85,100H27v-7.929c0-0.616-0.021-1.196-0.228-1.745C26.563,89.783,26.343,89.307,25.942,88.906z"/>
	<linearGradient id="SVGID_11_" gradientUnits="userSpaceOnUse" x1="37.9858" y1="127.7812" x2="37.9858" y2="-16.6797">
		<stop  offset="0" style="stop-color:#121212"/>
		<stop  offset="0.1595" style="stop-color:#121212"/>
		<stop  offset="0.5399" style="stop-color:#464646"/>
		<stop  offset="0.9509" style="stop-color:#000000"/>
	</linearGradient>
	<path fill="url(#SVGID_11_)" d="M42.338,88.906c-0.402-0.396-3.038-1.901-4.106-2.052c-0.606-0.084-0.286,0.918-0.835,1.134
		c-0.549,0.211-1.029,0.521-1.44,0.918c-0.4,0.4-0.705,0.877-0.912,1.42c-0.209,0.549-0.313,1.129-0.313,1.745l-1.829,7.153
		L34.731,100H36v-3h5.243l-1.806,2.354L41.243,100H43v-7.929c0-0.616,0.175-1.196-0.032-1.745
		C42.758,89.783,42.735,89.307,42.338,88.906z M42,94h-6v-1.976c0-0.432,0.609-0.804,0.778-1.119
		c0.168-0.312,0.671-0.556,0.985-0.727c0.313-0.169,0.814-0.253,1.242-0.253c0.434,0,0.876,0.084,1.192,0.253
		c0.316,0.171,0.97,0.414,1.14,0.727C41.504,91.221,42,91.593,42,92.024V94z"/>
	<linearGradient id="SVGID_12_" gradientUnits="userSpaceOnUse" x1="55.1777" y1="128.4053" x2="55.1777" y2="-17.4289">
		<stop  offset="0" style="stop-color:#121212"/>
		<stop  offset="0.1595" style="stop-color:#121212"/>
		<stop  offset="0.5399" style="stop-color:#464646"/>
		<stop  offset="0.9509" style="stop-color:#000000"/>
	</linearGradient>
	<path fill="url(#SVGID_12_)" d="M65,87.975l-1.626-0.89L55,89.164v-1.189l-2.03-0.89l-0.691,8.901c0,0.432-0.151,0.806-0.319,1.119
		c-0.17,0.313-0.444,0.556-0.762,0.724c-0.318,0.168-0.709,0.253-1.144,0.253c-0.428,0-0.805-0.085-1.119-0.253
		s-0.536-0.41-0.704-0.724C48.063,96.792,48,96.418,48,95.986v-8.012l-1.809-0.89l-0.547,8.871c0,1.277-0.712,2.015,0.107,2.847
		c0.417,0.401,2.009,1.028,2.551,1.241c0.544,0.211,1.122,0.316,1.739,0.316c0.629,0,1.213-0.103,1.761-0.315
		c0.545-0.211,1.292-0.518,1.703-0.916C54.324,98.296,55,97.237,55,95.958v-6.497L55.817,90h3.253l-1.744,9.157L59.07,100H61V90h4
		V87.975z"/>
	<linearGradient id="SVGID_13_" gradientUnits="userSpaceOnUse" x1="70.9639" y1="128.791" x2="70.9639" y2="-19.0492">
		<stop  offset="0" style="stop-color:#121212"/>
		<stop  offset="0.1595" style="stop-color:#121212"/>
		<stop  offset="0.5399" style="stop-color:#464646"/>
		<stop  offset="0.9509" style="stop-color:#000000"/>
	</linearGradient>
	<path fill="url(#SVGID_13_)" d="M75.243,89.513c-0.532-0.58-1.16-1.034-1.893-1.357c-0.729-0.327-1.471-0.944-2.715-1.23
		c-0.842-0.193-1.322,0.903-2.048,1.23c-0.729,0.323-1.356,0.777-1.896,1.357c-0.537,0.581-0.954,1.254-1.247,2.021
		c-0.296,0.766-0.443,1.588-0.443,2.469c0,0.88,0.147,1.707,0.445,2.48c0.296,0.775-0.312,1.236,0.229,1.819
		c0.537,0.582,2.2,1.252,2.932,1.575c0.737,0.323,1.523,0.483,2.364,0.483c0.835,0,1.62-0.16,2.355-0.483
		c0.734-0.323,1.371-0.775,1.904-1.359c0.533-0.581,0.95-1.26,1.248-2.035c0.296-0.773,0.448-1.601,0.448-2.48
		c0-0.881-0.147-1.703-0.444-2.469C76.188,90.767,75.776,90.094,75.243,89.513z M74.312,95.588
		c-0.184,0.505-0.443,0.952-0.784,1.344c-0.338,0.389-0.73,0.694-1.171,0.909c-0.438,0.211-0.901,0.318-1.387,0.318
		c-0.657,0-1.266-0.188-1.823-0.562c-0.56-0.373-1.003-0.88-1.324-1.518c-0.323-0.641-0.484-1.333-0.484-2.078
		c0-0.55,0.095-1.078,0.284-1.588c0.188-0.511,0.448-0.955,0.784-1.334c0.332-0.38,0.722-0.678,1.163-0.891
		c0.443-0.214,0.909-0.322,1.4-0.322s0.953,0.105,1.387,0.319c0.436,0.209,0.821,0.507,1.163,0.887
		c0.339,0.385,0.603,0.83,0.787,1.341c0.186,0.51,0.277,1.038,0.277,1.588C74.585,94.555,74.494,95.083,74.312,95.588z"/>
	<linearGradient id="SVGID_14_" gradientUnits="userSpaceOnUse" x1="88.3701" y1="127.8604" x2="88.3701" y2="-15.1416">
		<stop  offset="0" style="stop-color:#121212"/>
		<stop  offset="0.1595" style="stop-color:#121212"/>
		<stop  offset="0.5399" style="stop-color:#464646"/>
		<stop  offset="0.9509" style="stop-color:#000000"/>
	</linearGradient>
	<path fill="url(#SVGID_14_)" d="M93.251,94.975c-0.217-0.415-0.521-0.76-0.919-1.033c-0.397-0.274-0.884-0.507-1.467-0.698
		c-0.579-0.19-1.249-0.358-2.016-0.502c-0.662-0.138-1.183-0.268-1.561-0.393c-0.375-0.127-0.654-0.28-0.841-0.461
		c-0.185-0.179-0.276-0.401-0.276-0.67c0-0.285,0.109-0.54,0.328-0.761s0.51-0.381,0.868-0.488c0.359-0.104,0.748-0.158,1.165-0.158
		c0.484,0,0.902,0.079,1.257,0.239c0.354,0.161-0.541,0.898-0.541,0.898L90.885,92h2.317c0,0-0.094-1.174-0.282-1.645
		c-0.188-0.474-0.474-0.984-0.859-1.367c-0.382-0.379-1.933-1.356-2.531-1.585c-0.601-0.229-0.227,0.265-0.996,0.265
		c-0.926,0-1.748,0.139-2.457,0.434c-0.711,0.299-1.26,0.715-1.646,1.258c-0.387,0.543-0.579,1.152-0.579,1.837
		c0,0.621-0.826,1.375-0.424,1.676c0.567,0.425,1.376,0.691,1.805,0.972c0.429,0.276,0.898,0.492,1.406,0.646
		c0.507,0.155,1.089,0.298,1.74,0.431c1.076,0.203,1.825,0.438,2.245,0.693c0.42,0.257,0.63,0.587,0.63,0.986
		c0,0.366-0.129,0.67-0.386,0.916s-0.595,0.427-1.011,0.545c-0.415,0.117-0.857,0.176-1.324,0.176c-0.686,0-1.301-0.187-1.848-0.56
		c-0.544-0.376-0.816-0.898-0.816-1.567l-1.652-0.861l-0.666,0.861c0,0.926-0.762,1.819-0.133,2.315
		c0.752,0.599,1.957,1.151,2.724,1.466c0.764,0.313,1.562,0.47,2.392,0.47c0.752,0,1.444-0.088,2.074-0.266
		c0.629-0.176,1.16-0.431,1.603-0.767c0.44-0.332,0.777-0.739,1.01-1.213c0.237-0.475,0.352-1.001,0.352-1.586
		C93.571,95.908,93.465,95.388,93.251,94.975z"/>
	<linearGradient id="SVGID_15_" gradientUnits="userSpaceOnUse" x1="98.6328" y1="127.7607" x2="98.6328" y2="-16.593">
		<stop  offset="0" style="stop-color:#121212"/>
		<stop  offset="0.1595" style="stop-color:#121212"/>
		<stop  offset="0.5399" style="stop-color:#464646"/>
		<stop  offset="0.9509" style="stop-color:#000000"/>
	</linearGradient>
	<path fill="url(#SVGID_15_)" d="M102.677,88.963c-0.412-0.407-2.223-1.704-3.815-2.082c-0.812-0.193-1.031,0.984-1.724,1.383
		c-0.695,0.401-1.242,0.941-1.637,1.617c-0.399,0.679-0.599,1.426-0.599,2.242l-1.622,7.102L94.902,100H98v-3h1.614
		c0.748,0,1.461-0.4,2.139-0.795c0.677-0.396,1.219-1.036,1.624-1.721c0.407-0.688,0.608-1.49,0.608-2.314
		c0-0.621-0.112-1.227-0.344-1.764C103.415,89.869,103.092,89.369,102.677,88.963z M100.999,93.562
		C100.563,94.01,100.039,94,99.426,94H98v-1.824c0-0.638-0.173-1.182,0.26-1.632s0.758-0.677,1.361-0.677
		c0.613,0,1.04,0.227,1.476,0.677c0.433,0.45,0.599,0.877,0.599,1.515C101.695,92.692,101.432,93.115,100.999,93.562z"/>
	<linearGradient id="SVGID_16_" gradientUnits="userSpaceOnUse" x1="110.6953" y1="128.8096" x2="110.6953" y2="-19.1272">
		<stop  offset="0" style="stop-color:#121212"/>
		<stop  offset="0.1595" style="stop-color:#121212"/>
		<stop  offset="0.5399" style="stop-color:#464646"/>
		<stop  offset="0.9509" style="stop-color:#000000"/>
	</linearGradient>
	<path fill="url(#SVGID_16_)" d="M116.216,91.533c-0.295-0.767-0.708-1.439-1.239-2.021c-0.532-0.58-2.963-2.231-4.506-2.596
		c-0.843-0.197-1.426,0.911-2.153,1.238c-0.723,0.323-1.356,0.777-1.894,1.357c-0.537,0.581-0.955,1.254-1.25,2.021
		c-0.293,0.766-0.44,1.588-0.44,2.469c0,0.88,0.147,1.707,0.448,2.48c0.295,0.775-0.025,1.352,0.509,1.935
		c0.537,0.582,1.917,1.137,2.649,1.46c0.736,0.323,1.522,0.483,2.362,0.483c0.838,0,1.622-0.16,2.354-0.483
		c0.736-0.323,1.37-0.775,1.907-1.359c0.534-0.581,0.949-1.26,1.247-2.035c0.295-0.773,0.445-1.601,0.445-2.48
		C116.656,93.121,116.511,92.299,116.216,91.533z M114.045,95.588c-0.184,0.505-0.443,0.952-0.784,1.344
		c-0.341,0.389-0.73,0.694-1.169,0.909c-0.439,0.211-0.9,0.318-1.39,0.318c-0.656,0-1.265-0.188-1.822-0.562
		c-0.56-0.373-1.003-0.88-1.326-1.518c-0.323-0.641-0.481-1.333-0.481-2.078c0-0.55,0.092-1.078,0.283-1.588
		c0.188-0.511,0.447-0.955,0.783-1.334c0.331-0.38,0.721-0.678,1.164-0.891c0.445-0.214,0.911-0.322,1.399-0.322
		c0.491,0,0.955,0.105,1.39,0.319c0.434,0.209,0.82,0.507,1.158,0.887c0.342,0.385,0.604,0.83,0.789,1.341
		c0.187,0.51,0.28,1.038,0.28,1.588C114.319,94.555,114.226,95.083,114.045,95.588z"/>
	<linearGradient id="SVGID_17_" gradientUnits="userSpaceOnUse" x1="125.6641" y1="127.8096" x2="125.6641" y2="-16.8016">
		<stop  offset="0" style="stop-color:#121212"/>
		<stop  offset="0.1595" style="stop-color:#121212"/>
		<stop  offset="0.5399" style="stop-color:#464646"/>
		<stop  offset="0.9509" style="stop-color:#000000"/>
	</linearGradient>
	<path fill="url(#SVGID_17_)" d="M126.884,87.975l-1.405,1.248c-0.807-0.808-2.621-2.178-4.005-2.371
		c-1.258-0.177-1.636,1.237-2.452,2.09c-0.771,0.835-1.151,1.851-1.151,3.045l-1.542,7.238l1.548,0.775H120v-4h3.099
		c0.252,0,0.448-0.045,0.591,0.105c0.143,0.148,0.214,0.281,0.214,0.521l-1.522,2.63l1.522,0.744H126v-3.536
		c0-0.901-0.232-1.571-0.922-2.004c0.84-0.681,1.318-1.633,1.318-2.857c0-0.689-0.154-1.53-0.518-2.124L126.971,90h3.256
		l-1.505,9.157l1.505,0.843H133V90h2v-2.025l-1.074-0.89L126.884,87.975z M123.615,92.811c-0.338,0.34-0.807,0.189-1.402,0.189H120
		v-1.016c0-0.594,0.279-1.094,0.628-1.494c0.349-0.403,0.888-0.604,1.514-0.604c0.382,0,0.742,0.083,1.032,0.246
		c0.285,0.164,0.525,0.39,0.686,0.671c0.166,0.285,0.254,0.444,0.254,0.793C124.113,92.174,123.949,92.474,123.615,92.811z"/>
	<linearGradient id="SVGID_18_" gradientUnits="userSpaceOnUse" x1="141.0566" y1="128.1973" x2="141.0566" y2="-16.5534">
		<stop  offset="0" style="stop-color:#121212"/>
		<stop  offset="0.1595" style="stop-color:#121212"/>
		<stop  offset="0.5399" style="stop-color:#464646"/>
		<stop  offset="0.9509" style="stop-color:#000000"/>
	</linearGradient>
	<path fill="url(#SVGID_18_)" d="M146.003,94.975c-0.211-0.415-0.521-0.76-0.916-1.033c-0.397-0.274-0.886-0.507-1.467-0.698
		c-0.58-0.19-1.252-0.358-2.019-0.502c-0.661-0.138-1.181-0.268-1.558-0.393c-0.377-0.127-0.659-0.28-0.843-0.461
		c-0.186-0.179-0.279-0.401-0.279-0.67c0-0.285,0.111-0.54,0.33-0.761c0.222-0.221,0.512-0.381,0.868-0.488
		c0.361-0.104,0.746-0.158,1.166-0.158c0.483,0,0.903,0.079,1.255,0.239c0.356,0.161-0.356,0.898-0.356,0.898L143.641,92h2.313
		c0,0-0.094-1.174-0.282-1.645c-0.188-0.474-0.474-0.984-0.855-1.367c-0.384-0.379-2.115-1.529-2.711-1.757
		c-0.601-0.228-0.051,0.437-0.819,0.437c-0.924,0-1.746,0.139-2.456,0.434c-0.711,0.299-1.261,0.715-1.647,1.258
		c-0.384,0.543-0.577,1.152-0.577,1.837c0,0.621-1.011,0.724-0.787,1.171c0.265,0.543,1.736,1.196,2.166,1.477
		c0.431,0.276,0.898,0.492,1.405,0.646c0.509,0.155,1.09,0.298,1.741,0.431c1.079,0.203,1.828,0.438,2.245,0.693
		c0.42,0.257,0.631,0.587,0.631,0.986c0,0.366-0.13,0.67-0.387,0.916s-0.596,0.427-1.011,0.545
		c-0.417,0.117-0.857,0.176-1.323,0.176c-0.688,0-1.304-0.187-1.846-0.56c-0.545-0.376-0.816-0.898-0.816-1.567l-1.475-0.861
		c-0.725,0.742-1.359,2.716-0.74,3.222c0.784,0.641,1.718,1.106,2.484,1.421c0.766,0.313,1.562,0.47,2.393,0.47
		c0.754,0,1.446-0.088,2.074-0.266c0.627-0.176,1.161-0.431,1.602-0.767c0.44-0.332,0.776-0.739,1.013-1.213
		c0.232-0.475,0.352-1.001,0.352-1.586C146.326,95.908,146.22,95.388,146.003,94.975z"/>
</g>
<g>
	<g>
		<linearGradient id="SVGID_19_" gradientUnits="userSpaceOnUse" x1="46.5981" y1="-9.8789" x2="46.5981" y2="102.9991">
			<stop  offset="0" style="stop-color:#D4D4D4"/>
			<stop  offset="0.5521" style="stop-color:#999999"/>
			<stop  offset="1" style="stop-color:#DEDEDE"/>
		</linearGradient>
		<path fill="url(#SVGID_19_)" d="M117.306,44.833c-0.033-7.906-2.793-13.475-3.113-14.096c-2.546-5.106-5.725-8.457-7.876-10.328
			c0.334-0.996,0.385-1.789,0.39-2.039l0.003-20.392l-3.034-0.069C95.72-2.269,91.576-1.81,91.431-1.793L91.35-1.782
			c-7.277,1.012-11.267,3.909-11.96,4.449c-3.191,2.352-5.182,5.117-6.426,7.658c-1.353-1.808-2.407-2.883-2.475-2.947
			C65.36,2.033,57.938-0.28,57.678-0.357c-3.413-1.115-6.87-1.682-10.271-1.682c-3.149,0-5.229,0.495-5.75,0.633
			c-5.846,1.335-10.205,3.993-12.722,5.875C23.221,0.216,16.267-2.101,9.082-2.101c-18.303,0-33.195,14.842-33.195,33.086
			c0,8.351,3.131,16.323,8.813,22.451c3.649,3.937,8.142,6.891,13.094,8.672l-6.583,3.607l1.624,2.759
			c2.319,3.939,6.848,8.242,7.038,8.426l0.135,0.117c7.489,6.313,16.275,6.495,17.252,6.495h0.023
			c8.399,0,13.769-3.477,14.822-4.225c6.828-4.08,9.918-11.088,10.324-12.065c1.568-3.386,2.129-7.889,2.314-9.98
			c0.591,2.09,1.811,3.506,2.147,3.866c2.254,2.507,5.607,2.817,5.982,2.847l4.594,0.006c1.71,2.208,4.065,4.462,4.383,4.761
			l0.049,0.049c5.054,4.587,9.14,6.199,9.258,6.245c4.365,1.784,8.96,2.688,13.656,2.688l0,0c4.047,0,6.756-0.683,7.295-0.829
			c8.494-2.084,15.164-8.527,15.437-8.791c5.647-5.48,7.682-11.699,7.967-12.641C117.377,50.086,117.323,45.494,117.306,44.833z
			 M44.829,35.65V28.99c0-0.85,0.493-1.677,0.66-1.897c1.059-1.299,2.501-1.357,2.548-1.359c1.459,0,2.32,0.753,2.518,0.949
			l0.134,0.144c0.567,0.608,0.769,1.595,0.806,1.943v6.881H44.829z M112.558,54.487c0,0-1.708,6.063-7.175,11.366
			c0,0-6.27,6.127-14.059,8.018c0,0-8.676,2.487-18.994-1.729c0,0-3.658-1.418-8.346-5.671c0,0-3.517-3.331-4.911-5.611h-5.975
			c0,0-2.438-0.177-3.92-1.85c0,0-1.657-1.703-1.657-4.075V38.752h7.075V28.663c0,0-0.109-2.313-1.64-3.953
			c0,0-1.688-2.077-4.92-2.077c0,0-2.874-0.047-4.952,2.5c0,0-1.359,1.655-1.359,3.857v26.96c0,0-0.281,6.074-2.14,10.025
			c0,0-2.732,6.921-9.184,10.716c0,0-4.857,3.717-13.119,3.717c0,0-8.327,0.096-15.276-5.762c0,0-4.374-4.141-6.499-7.747
			l11.02-6.039c-15.423-1.289-27.538-14.174-27.538-29.875c0-16.558,13.472-29.984,30.093-29.984c7.615,0,14.57,2.821,19.87,7.469
			c1.246-1.156,6.006-5.183,13.457-6.866c0,0,6.001-1.724,14.304,0.987c0,0,6.911,2.111,11.54,6.934c0,0,3.469,3.496,5.746,8.581
			c0.057-1.261,0.652-8.118,7.272-12.972c0,0,3.557-2.877,10.504-3.844c0,0,4.031-0.454,11.83-0.278v17.278
			c0,0-0.043,1.629-1.331,2.92c0,0,5.33,3.245,9.153,10.933c0,0,2.754,5.181,2.774,12.745
			C114.202,44.889,114.386,49.286,112.558,54.487z"/>
	</g>
	<linearGradient id="SVGID_20_" gradientUnits="userSpaceOnUse" x1="46.6299" y1="-9.877" x2="46.6299" y2="103.0017">
		<stop  offset="0" style="stop-color:#D4D4D4"/>
		<stop  offset="0.5521" style="stop-color:#999999"/>
		<stop  offset="1" style="stop-color:#DEDEDE"/>
	</linearGradient>
	<path fill="url(#SVGID_20_)" d="M92.89,69.081c1.443-0.535,3.77-1.598,6.455-3.558c11.815-8.271,10.706-21.455,10.706-21.455
		c-0.028-4.151-1.084-7.683-2.561-10.605c-1.062-2.004-2.199-3.592-2.945-4.547c-0.496-0.617-0.998-1.187-1.489-1.708
		c-3.042-3.079-6.819-4.718-6.819-4.718c-1.479-0.74-1.26-2.001-1.26-2.001c0-1.808,2.041-1.89,2.041-1.89h1.313
		c0.09-0.004,0.179-0.008,0.275-0.008c0.003,0,0.003,0,0.003,0c0.032,0,0.061,0.004,0.089,0.005l0,0c0,0,0.726-0.004,0.794-0.6V8.54
		v-3.4h-2.925V5.14h-0.013c-0.224,0-0.44,0.004-0.656,0.006c-0.846,0.024-1.58,0.063-2.131,0.102
		C77.606,6.536,78.101,19.002,78.101,19.002c-0.041,1.478,0.144,2.825,0.488,4.051c1.851,5.688,8.713,9.357,8.713,9.357
		c1.69,0.896,2.958,1.76,3.697,2.303c2.681,1.759,4.616,4.555,5.24,7.819c0.084,0.486,0.26,1.678,0.186,2.952
		c0,0,0.008-0.003,0.008-0.004c-0.354,6.336-5.607,11.365-12.032,11.365c-6.494,0-11.786-5.135-12.039-11.564
		c-0.031-0.513-0.042-0.893-0.042-0.893v-1.3c-0.004-0.08-0.004-0.124-0.004-0.124v-13.68c0-9.549-6.426-16.25-6.426-16.25
		c-6.794-7.62-17.812-7.896-17.812-7.896c-4.981,0-9.145,1.606-12.312,3.489c-0.076,0.033-0.118,0.053-0.118,0.053
		c-2.25,1.238-4.048,2.766-5.454,4.283c-0.044,0.046-0.09,0.091-0.133,0.135c-0.026,0.033-0.051,0.063-0.076,0.094
		c-2.144,2.376-3.333,4.678-3.818,5.747c-0.021,0.04-0.033,0.063-0.033,0.063c-0.017,0.042-0.034,0.082-0.05,0.123
		c-0.12,0.278-0.179,0.433-0.179,0.433c-0.012,0.038-0.021,0.069-0.032,0.103c-0.752,1.958-1.233,3.797-1.537,5.428
		c-0.2,1.428-0.308,3.104-0.368,4.432c-0.007,0.273-0.012,0.538-0.019,0.789c-0.12,5.966-4.282,9.432-4.282,9.432
		c-7.118,5.536-13.036,2.671-13.036,2.671c-3.714-1.54-5.911-3.76-7.18-6.075c-0.016-0.042-0.025-0.064-0.025-0.064
		c-4.36-10.536,5.133-15.811,5.133-15.811c0.051-0.031,0.101-0.059,0.15-0.087c3.488-1.776,6.917-1.648,6.917-1.648
		c3.552,0,6.608,2.254,8.331,3.854c0.185,0.116,0.594,0.326,1.003,0.236c0,0,0.617-0.123,0.821-0.904c0,0,0.003,0.004,0.007,0.007
		c0.506-2.362,1.423-4.559,2.309-6.307c0.589-1.063,1.534-2.763,2.02-3.585c0,0-1.741-2.385-7.754-4.931l-0.013,0.004
		C16.888,6.49,15.94,6.242,15.94,6.242C6.668,3.394-2.421,7.71-2.421,7.71C-13.898,13.77-16.01,24.42-16.01,24.42
		c-2.663,11.11,2.112,18.545,2.112,18.545C-6.645,56.832,8.596,56.737,8.596,56.737c9.549,0,15.333-5.05,15.333-5.05v6.056
		c-0.002,0-0.006,0-0.009,0c0,0-0.021,1.18-0.329,1.893c-0.351,0.721-0.939,1.272-1.604,1.691c-1.435,0.977-3.091,1.203-3.677,1.255
		c-0.162,0.021-0.256,0.033-0.256,0.033c-1.345,0-2.402-0.203-3.238-0.521c-0.64-0.197-1.26-0.13-1.688-0.032
		c-0.314,0.079-0.602,0.214-0.753,0.296l-10.768,5.91c1.045,1.434,1.847,2.149,1.847,2.149c6.428,6.242,14.14,5.878,14.14,5.878
		c8.814,0,14.048-5.787,14.048-5.787c3.094-2.945,4.583-6.68,5.303-9.515l-0.011,0.018c0.528-2.242,0.647-4.47,0.676-5.377V29.286
		c0-1.406,0.225-2.624,0.604-3.68c1.443-4.127,5.369-7.092,9.989-7.092c4.878,0,8.981,3.301,10.205,7.788
		c0.321,1.332,0.313,2.705,0.313,2.705v2.104c0.002,0.001,0.002,0.003,0.008,0.003v11.761H55.73l0,0h-4.075v4.076h0.003v7.963
		c0.044,0.501,0.302,1.715,1.73,1.824h8.001c3.489,6.611,10.836,10.834,10.836,10.834c9.044,4.349,16.33,3.096,20.473,1.583
		c0.038-0.017,0.078-0.031,0.118-0.047C92.841,69.1,92.866,69.091,92.89,69.081z"/>
	<linearGradient id="SVGID_21_" gradientUnits="userSpaceOnUse" x1="74.1289" y1="40.896" x2="74.1289" y2="40.9097">
		<stop  offset="0" style="stop-color:#D4D4D4"/>
		<stop  offset="0.5521" style="stop-color:#999999"/>
		<stop  offset="1" style="stop-color:#DEDEDE"/>
	</linearGradient>
	<polygon fill="url(#SVGID_21_)" points="74.119,40.896 74.119,40.905 74.14,40.91 	"/>
	<linearGradient id="SVGID_22_" gradientUnits="userSpaceOnUse" x1="83.9863" y1="-9.8789" x2="83.9863" y2="103.0019">
		<stop  offset="0" style="stop-color:#D4D4D4"/>
		<stop  offset="0.5521" style="stop-color:#999999"/>
		<stop  offset="1" style="stop-color:#DEDEDE"/>
	</linearGradient>
	<path fill="url(#SVGID_22_)" d="M87.322,45.396l6.429-4.373c0.085-0.085,0.129-0.127,0.085-0.127c0-0.086-0.043-0.086-0.126-0.086
		h-7.972c-0.088,0-0.216,0-0.262-0.171l-2.309-6.259c-0.089-0.17-0.134-0.299-0.216-0.256c-0.087,0-0.175,0.086-0.217,0.256
		l-2.454,6.43h-5.904h-0.212c0,0-0.046,0-0.046,0.086l0.021,0.014l-0.021-0.005l16.156,12.511l-0.009-0.023
		c0.067,0.058,0.107,0.057,0.141,0.021c0.044-0.046,0.044-0.086,0.044-0.174l-3.217-7.543
		C87.235,45.568,87.235,45.439,87.322,45.396z"/>
	<linearGradient id="SVGID_23_" gradientUnits="userSpaceOnUse" x1="74.1113" y1="40.896" x2="74.1113" y2="40.9048">
		<stop  offset="0" style="stop-color:#D4D4D4"/>
		<stop  offset="0.5521" style="stop-color:#999999"/>
		<stop  offset="1" style="stop-color:#DEDEDE"/>
	</linearGradient>
	<path fill="url(#SVGID_23_)" d="M74.119,40.905c0-0.003,0-0.009,0-0.009C74.098,40.896,74.102,40.898,74.119,40.905z"/>
	<g>
		<linearGradient id="SVGID_24_" gradientUnits="userSpaceOnUse" x1="-43.3501" y1="-9.8882" x2="-43.3501" y2="103.0016">
			<stop  offset="0" style="stop-color:#D4D4D4"/>
			<stop  offset="0.5521" style="stop-color:#999999"/>
			<stop  offset="1" style="stop-color:#DEDEDE"/>
		</linearGradient>
		<path fill="url(#SVGID_24_)" d="M-35.472,92.937l-7.099-6.84c-0.216-0.189-0.518-0.303-0.947-0.303h-7.833l0.258,0.274
			c0.073,0.043,0.145,0.07,0.216,0.07h0.201c0.144,0.014,0.272,0.073,0.343,0.158l5.248,5.487l0.797,0.388h0.875
			c0.396,0,0.557,0.165,0.595,0.211l1.013,0.886h6.102c0.23,0,0.332-0.015,0.345-0.087C-35.329,93.108-35.385,93.023-35.472,92.937z
			"/>
		<linearGradient id="SVGID_25_" gradientUnits="userSpaceOnUse" x1="-43.3501" y1="-9.8608" x2="-43.3501" y2="102.9992">
			<stop  offset="0" style="stop-color:#D4D4D4"/>
			<stop  offset="0.5521" style="stop-color:#999999"/>
			<stop  offset="1" style="stop-color:#DEDEDE"/>
		</linearGradient>
		<path fill="url(#SVGID_25_)" d="M-35.472,94.146l-7.099,6.84c-0.216,0.188-0.518,0.305-0.947,0.305h-7.833l0.258-0.274
			c0.073-0.042,0.145-0.072,0.216-0.072h0.201c0.144-0.017,0.272-0.071,0.343-0.156l5.248-5.489l0.797-0.387h0.875
			c0.396,0,0.557-0.163,0.595-0.21l1.013-0.885h6.102c0.23,0,0.332,0.015,0.345,0.086C-35.329,93.973-35.385,94.058-35.472,94.146z"
			/>
	</g>
	<g>
		<linearGradient id="SVGID_26_" gradientUnits="userSpaceOnUse" x1="-26.313" y1="-9.8779" x2="-26.313" y2="102.9993">
			<stop  offset="0" style="stop-color:#D4D4D4"/>
			<stop  offset="0.5521" style="stop-color:#999999"/>
			<stop  offset="1" style="stop-color:#DEDEDE"/>
		</linearGradient>
		<path fill="url(#SVGID_26_)" d="M-26.295,99.515c-1.091,0-2.091-0.283-3.002-0.847c-0.913-0.565-1.63-1.336-2.151-2.315
			c-0.522-0.978-0.783-2.053-0.783-3.221c0-1.173,0.261-2.244,0.783-3.219c0.521-0.974,1.238-1.745,2.151-2.311
			c0.911-0.564,1.912-0.848,3.002-0.848c0.681,0,1.316,0.093,1.9,0.279c0.585,0.187,1.116,0.453,1.595,0.802s0.896,0.776,1.249,1.29
			c0.353,0.515,0.621,1.081,0.804,1.7h-2.503c-0.304-0.602-0.715-1.076-1.233-1.421c-0.519-0.344-1.122-0.519-1.808-0.519
			c-0.661,0-1.269,0.192-1.825,0.578c-0.555,0.387-0.993,0.902-1.311,1.554c-0.317,0.652-0.477,1.354-0.477,2.114
			c0,0.768,0.161,1.479,0.483,2.135c0.321,0.653,0.756,1.172,1.31,1.558c0.555,0.383,1.16,0.576,1.818,0.576
			c0.836,0,1.562-0.266,2.175-0.797c0.614-0.528,1.004-1.177,1.17-1.938h-3.026v-2.172h5.58c0,1.44-0.252,2.691-0.756,3.752
			c-0.506,1.062-1.206,1.869-2.101,2.43C-24.146,99.235-25.16,99.515-26.295,99.515z"/>
		<linearGradient id="SVGID_27_" gradientUnits="userSpaceOnUse" x1="-14.2866" y1="-9.8735" x2="-14.2866" y2="102.9992">
			<stop  offset="0" style="stop-color:#D4D4D4"/>
			<stop  offset="0.5521" style="stop-color:#999999"/>
			<stop  offset="1" style="stop-color:#DEDEDE"/>
		</linearGradient>
		<path fill="url(#SVGID_27_)" d="M-9.855,91.197v8.104h-2.326v-3.412h-4.208v3.412h-2.329v-8.104c0-0.621,0.105-1.203,0.315-1.75
			c0.209-0.549,0.514-1.023,0.916-1.425c0.412-0.401,0.894-0.711,1.445-0.925c0.551-0.217,1.133-0.323,1.746-0.323
			c0.626,0,1.217,0.106,1.774,0.323c0.556,0.214,1.035,0.523,1.436,0.925c0.402,0.401,0.707,0.876,0.917,1.425
			C-9.959,89.994-9.855,90.576-9.855,91.197z M-12.181,93.658v-2.511c0-0.431-0.084-0.805-0.254-1.12
			c-0.17-0.315-0.414-0.56-0.73-0.729s-0.692-0.254-1.13-0.254c-0.427,0-0.8,0.084-1.115,0.254s-0.557,0.414-0.725,0.729
			c-0.169,0.315-0.253,0.689-0.253,1.12v2.511H-12.181z"/>
		<linearGradient id="SVGID_28_" gradientUnits="userSpaceOnUse" x1="-4.0083" y1="-9.8735" x2="-4.0083" y2="102.9989">
			<stop  offset="0" style="stop-color:#D4D4D4"/>
			<stop  offset="0.5521" style="stop-color:#999999"/>
			<stop  offset="1" style="stop-color:#DEDEDE"/>
		</linearGradient>
		<path fill="url(#SVGID_28_)" d="M-3.944,99.301c-1.221,0-2.167-0.344-2.834-1.034c-0.666-0.69-1.002-1.633-1.002-2.826v-8.355
			h2.327v8.319c0,0.568,0.118,0.979,0.352,1.231c0.235,0.249,0.628,0.376,1.178,0.376h3.687v2.289H-3.944z"/>
		<linearGradient id="SVGID_29_" gradientUnits="userSpaceOnUse" x1="5.7026" y1="-9.8735" x2="5.7026" y2="102.9992">
			<stop  offset="0" style="stop-color:#D4D4D4"/>
			<stop  offset="0.5521" style="stop-color:#999999"/>
			<stop  offset="1" style="stop-color:#DEDEDE"/>
		</linearGradient>
		<path fill="url(#SVGID_29_)" d="M10.26,91.245c0,0.825-0.204,1.582-0.61,2.27c-0.407,0.689-0.951,1.23-1.63,1.627
			c-0.68,0.395-1.394,0.59-2.145,0.59h-2.4v3.569H1.146v-8.052c0-0.822,0.199-1.571,0.598-2.25c0.4-0.68,0.947-1.222,1.645-1.624
			c0.697-0.401,1.464-0.601,2.303-0.601c0.647,0,1.249,0.114,1.802,0.345c0.554,0.228,1.039,0.55,1.453,0.96
			c0.417,0.408,0.739,0.882,0.969,1.42C10.145,90.039,10.26,90.62,10.26,91.245z M7.914,91.302c0-0.641-0.217-1.187-0.652-1.639
			c-0.434-0.453-0.96-0.68-1.577-0.68c-0.607,0-1.126,0.227-1.561,0.68c-0.434,0.452-0.65,0.998-0.65,1.639V93.6h2.211
			c0.617,0,1.143-0.223,1.577-0.673C7.696,92.478,7.914,91.937,7.914,91.302z"/>
		<linearGradient id="SVGID_30_" gradientUnits="userSpaceOnUse" x1="13.0337" y1="-9.8735" x2="13.0337" y2="102.9989">
			<stop  offset="0" style="stop-color:#D4D4D4"/>
			<stop  offset="0.5521" style="stop-color:#999999"/>
			<stop  offset="1" style="stop-color:#DEDEDE"/>
		</linearGradient>
		<path fill="url(#SVGID_30_)" d="M14.207,87.085v12.216H11.86V87.085H14.207z"/>
		<linearGradient id="SVGID_31_" gradientUnits="userSpaceOnUse" x1="20.8828" y1="-9.8735" x2="20.8828" y2="102.9992">
			<stop  offset="0" style="stop-color:#D4D4D4"/>
			<stop  offset="0.5521" style="stop-color:#999999"/>
			<stop  offset="1" style="stop-color:#DEDEDE"/>
		</linearGradient>
		<path fill="url(#SVGID_31_)" d="M20.875,86.774c0.623,0,1.216,0.106,1.771,0.323c0.557,0.214,1.036,0.523,1.437,0.925
			s0.708,0.876,0.917,1.425c0.209,0.547,0.314,1.129,0.314,1.75v8.104h-2.328v-8.157c0-0.432-0.083-0.805-0.251-1.117
			c-0.17-0.318-0.413-0.559-0.731-0.729c-0.318-0.17-0.694-0.254-1.128-0.254c-0.43,0-0.804,0.084-1.117,0.254
			c-0.316,0.17-0.557,0.41-0.725,0.729c-0.17,0.312-0.255,0.686-0.255,1.117v8.157h-2.326v-8.104c0-0.621,0.105-1.203,0.314-1.75
			c0.208-0.549,0.517-1.023,0.917-1.425c0.413-0.401,0.894-0.711,1.445-0.925C19.677,86.881,20.261,86.774,20.875,86.774z"/>
		<linearGradient id="SVGID_32_" gradientUnits="userSpaceOnUse" x1="37.3325" y1="-9.8735" x2="37.3325" y2="102.9992">
			<stop  offset="0" style="stop-color:#D4D4D4"/>
			<stop  offset="0.5521" style="stop-color:#999999"/>
			<stop  offset="1" style="stop-color:#DEDEDE"/>
		</linearGradient>
		<path fill="url(#SVGID_32_)" d="M41.763,91.197v8.104h-2.326v-3.412h-4.208v3.412h-2.327v-8.104c0-0.621,0.103-1.203,0.312-1.75
			c0.21-0.549,0.515-1.023,0.917-1.425c0.414-0.401,0.895-0.711,1.446-0.925c0.551-0.217,1.132-0.323,1.746-0.323
			c0.625,0,1.216,0.106,1.771,0.323c0.558,0.214,1.038,0.523,1.438,0.925c0.4,0.401,0.706,0.876,0.915,1.425
			C41.659,89.994,41.763,90.576,41.763,91.197z M39.437,93.658v-2.511c0-0.431-0.086-0.805-0.254-1.12
			c-0.168-0.315-0.413-0.56-0.729-0.729c-0.317-0.17-0.694-0.254-1.129-0.254c-0.43,0-0.802,0.084-1.117,0.254
			c-0.314,0.17-0.556,0.414-0.726,0.729c-0.168,0.315-0.252,0.689-0.252,1.12v2.511H39.437z"/>
		<linearGradient id="SVGID_33_" gradientUnits="userSpaceOnUse" x1="48.27" y1="-9.8745" x2="48.27" y2="102.9991">
			<stop  offset="0" style="stop-color:#D4D4D4"/>
			<stop  offset="0.5521" style="stop-color:#999999"/>
			<stop  offset="1" style="stop-color:#DEDEDE"/>
		</linearGradient>
		<path fill="url(#SVGID_33_)" d="M48.263,99.515c-0.618,0-1.201-0.107-1.746-0.32c-0.545-0.211-1.026-0.521-1.444-0.922
			c-0.823-0.837-1.233-1.899-1.233-3.18v-8.008h2.327v8.037c0,0.434,0.085,0.812,0.253,1.126c0.168,0.316,0.412,0.557,0.726,0.725
			c0.315,0.171,0.687,0.253,1.116,0.253c0.437,0,0.812-0.082,1.13-0.253c0.317-0.168,0.561-0.408,0.729-0.725
			c0.168-0.314,0.254-0.692,0.254-1.126v-8.037h2.327v8.013c0,1.283-0.412,2.344-1.231,3.179c-0.412,0.403-0.892,0.71-1.438,0.921
			C49.483,99.408,48.894,99.515,48.263,99.515z"/>
		<linearGradient id="SVGID_34_" gradientUnits="userSpaceOnUse" x1="58.498" y1="-9.8735" x2="58.498" y2="102.9989">
			<stop  offset="0" style="stop-color:#D4D4D4"/>
			<stop  offset="0.5521" style="stop-color:#999999"/>
			<stop  offset="1" style="stop-color:#DEDEDE"/>
		</linearGradient>
		<path fill="url(#SVGID_34_)" d="M62.937,89.256h-3.283v10.045h-2.327V89.256h-3.266v-2.171h8.876V89.256z"/>
		<linearGradient id="SVGID_35_" gradientUnits="userSpaceOnUse" x1="69.2578" y1="-9.875" x2="69.2578" y2="102.9989">
			<stop  offset="0" style="stop-color:#D4D4D4"/>
			<stop  offset="0.5521" style="stop-color:#999999"/>
			<stop  offset="1" style="stop-color:#DEDEDE"/>
		</linearGradient>
		<path fill="url(#SVGID_35_)" d="M69.268,86.774c0.86,0,1.654,0.164,2.388,0.491c0.73,0.327,1.364,0.78,1.897,1.363
			c0.533,0.58,0.947,1.257,1.243,2.024c0.297,0.769,0.445,1.597,0.445,2.479c0,0.882-0.149,1.713-0.447,2.489
			c-0.301,0.778-0.718,1.46-1.254,2.042c-0.537,0.586-1.172,1.041-1.91,1.364c-0.738,0.324-1.526,0.486-2.362,0.486
			c-0.843,0-1.635-0.162-2.372-0.486c-0.737-0.323-1.376-0.778-1.915-1.364c-0.539-0.582-0.959-1.264-1.257-2.042
			c-0.3-0.776-0.448-1.607-0.448-2.489c0-0.883,0.147-1.711,0.443-2.479c0.297-0.768,0.714-1.444,1.255-2.024
			c0.537-0.583,1.172-1.036,1.901-1.363C67.604,86.938,68.399,86.774,69.268,86.774z M69.268,97.304
			c0.486,0,0.949-0.107,1.391-0.322c0.443-0.213,0.834-0.518,1.173-0.91c0.344-0.392,0.603-0.84,0.789-1.347
			c0.183-0.506,0.273-1.038,0.273-1.592c0-0.551-0.092-1.082-0.279-1.592c-0.186-0.514-0.45-0.963-0.791-1.347
			c-0.341-0.382-0.729-0.68-1.165-0.89c-0.434-0.214-0.899-0.321-1.391-0.321c-0.494,0-0.962,0.108-1.406,0.323
			c-0.443,0.216-0.834,0.514-1.167,0.894c-0.336,0.381-0.599,0.827-0.789,1.341c-0.188,0.51-0.283,1.041-0.283,1.592
			c0,0.748,0.162,1.444,0.485,2.086c0.324,0.642,0.768,1.149,1.327,1.523C67.997,97.118,68.606,97.304,69.268,97.304z"/>
		<linearGradient id="SVGID_36_" gradientUnits="userSpaceOnUse" x1="86.917" y1="-9.8779" x2="86.917" y2="102.9993">
			<stop  offset="0" style="stop-color:#D4D4D4"/>
			<stop  offset="0.5521" style="stop-color:#999999"/>
			<stop  offset="1" style="stop-color:#DEDEDE"/>
		</linearGradient>
		<path fill="url(#SVGID_36_)" d="M86.887,86.755c0.774,0,1.464,0.116,2.064,0.345s1.095,0.535,1.479,0.917
			c0.384,0.383,0.672,0.81,0.858,1.283c0.192,0.473,0.285,0.967,0.285,1.476h-2.325c0-0.354-0.097-0.672-0.283-0.949
			c-0.19-0.278-0.462-0.498-0.813-0.659c-0.359-0.159-0.776-0.24-1.266-0.24c-0.417,0-0.807,0.053-1.165,0.159
			c-0.363,0.106-0.654,0.27-0.872,0.489c-0.221,0.222-0.332,0.477-0.332,0.763c0,0.27,0.097,0.492,0.279,0.673
			c0.187,0.184,0.469,0.336,0.846,0.464c0.378,0.125,0.898,0.256,1.562,0.394c0.769,0.144,1.442,0.312,2.026,0.502
			c0.583,0.192,1.071,0.426,1.469,0.703c0.399,0.276,0.705,0.621,0.924,1.034c0.214,0.416,0.321,0.938,0.321,1.563
			c0,0.584-0.119,1.116-0.353,1.592c-0.236,0.475-0.574,0.882-1.016,1.216c-0.442,0.336-0.977,0.593-1.609,0.769
			c-0.627,0.18-1.324,0.268-2.081,0.268c-0.831,0-1.631-0.158-2.398-0.473c-0.769-0.315-1.394-0.794-1.876-1.437
			c-0.482-0.642-0.724-1.429-0.724-2.357h2.328c0,0.671,0.272,1.194,0.819,1.57c0.548,0.376,1.165,0.562,1.851,0.562
			c0.469,0,0.914-0.057,1.332-0.176c0.42-0.118,0.756-0.299,1.013-0.546c0.257-0.246,0.387-0.554,0.387-0.92
			c0-0.402-0.211-0.731-0.633-0.99c-0.42-0.258-1.169-0.49-2.251-0.696c-0.656-0.131-1.237-0.274-1.747-0.43
			c-0.511-0.154-0.979-0.373-1.41-0.649c-0.432-0.28-0.768-0.637-1.015-1.071c-0.248-0.437-0.372-0.964-0.372-1.584
			c0-0.688,0.193-1.306,0.582-1.851c0.386-0.546,0.937-0.967,1.65-1.265C85.139,86.905,85.958,86.755,86.887,86.755z"/>
		<linearGradient id="SVGID_37_" gradientUnits="userSpaceOnUse" x1="97.8379" y1="-9.8735" x2="97.8379" y2="102.9992">
			<stop  offset="0" style="stop-color:#D4D4D4"/>
			<stop  offset="0.5521" style="stop-color:#999999"/>
			<stop  offset="1" style="stop-color:#DEDEDE"/>
		</linearGradient>
		<path fill="url(#SVGID_37_)" d="M102.395,91.245c0,0.825-0.204,1.582-0.608,2.27c-0.41,0.689-0.952,1.23-1.632,1.627
			c-0.68,0.395-1.396,0.59-2.146,0.59h-2.402v3.569H93.28v-8.052c0-0.822,0.199-1.571,0.598-2.25c0.4-0.68,0.946-1.222,1.644-1.624
			c0.697-0.401,1.464-0.601,2.304-0.601c0.648,0,1.25,0.114,1.802,0.345c0.553,0.228,1.039,0.55,1.454,0.96
			c0.417,0.408,0.74,0.882,0.97,1.42C102.279,90.039,102.395,90.62,102.395,91.245z M100.05,91.302c0-0.641-0.219-1.187-0.651-1.639
			c-0.438-0.453-0.963-0.68-1.581-0.68c-0.604,0-1.125,0.227-1.558,0.68c-0.436,0.452-0.654,0.998-0.654,1.639V93.6h2.212
			c0.618,0,1.143-0.223,1.581-0.673C99.831,92.478,100.05,91.937,100.05,91.302z"/>
		<linearGradient id="SVGID_38_" gradientUnits="userSpaceOnUse" x1="109.125" y1="-9.875" x2="109.125" y2="102.9989">
			<stop  offset="0" style="stop-color:#D4D4D4"/>
			<stop  offset="0.5521" style="stop-color:#999999"/>
			<stop  offset="1" style="stop-color:#DEDEDE"/>
		</linearGradient>
		<path fill="url(#SVGID_38_)" d="M109.135,86.774c0.862,0,1.657,0.164,2.388,0.491c0.735,0.327,1.366,0.78,1.901,1.363
			c0.531,0.58,0.946,1.257,1.244,2.024c0.293,0.769,0.44,1.597,0.44,2.479c0,0.882-0.147,1.713-0.448,2.489
			c-0.297,0.778-0.715,1.46-1.252,2.042c-0.534,0.586-1.174,1.041-1.909,1.364c-0.738,0.324-1.527,0.486-2.364,0.486
			c-0.843,0-1.632-0.162-2.37-0.486c-0.738-0.323-1.375-0.778-1.914-1.364c-0.542-0.582-0.96-1.264-1.26-2.042
			c-0.296-0.776-0.448-1.607-0.448-2.489c0-0.883,0.147-1.711,0.445-2.479c0.295-0.768,0.713-1.444,1.252-2.024
			c0.54-0.583,1.174-1.036,1.904-1.363C107.473,86.938,108.269,86.774,109.135,86.774z M109.135,97.304
			c0.488,0,0.952-0.107,1.392-0.322c0.443-0.213,0.833-0.518,1.174-0.91c0.344-0.392,0.604-0.84,0.786-1.347
			c0.187-0.506,0.275-1.038,0.275-1.592c0-0.551-0.094-1.082-0.28-1.592c-0.186-0.514-0.447-0.963-0.789-1.347
			c-0.341-0.382-0.728-0.68-1.166-0.89c-0.435-0.214-0.898-0.321-1.392-0.321c-0.491,0-0.963,0.108-1.405,0.323
			c-0.443,0.216-0.833,0.514-1.169,0.894c-0.336,0.381-0.596,0.827-0.786,1.341c-0.188,0.51-0.282,1.041-0.282,1.592
			c0,0.748,0.16,1.444,0.486,2.086c0.32,0.642,0.766,1.149,1.326,1.523C107.867,97.118,108.478,97.304,109.135,97.304z"/>
		<linearGradient id="SVGID_39_" gradientUnits="userSpaceOnUse" x1="120.6348" y1="-9.8735" x2="120.6348" y2="102.9992">
			<stop  offset="0" style="stop-color:#D4D4D4"/>
			<stop  offset="0.5521" style="stop-color:#999999"/>
			<stop  offset="1" style="stop-color:#DEDEDE"/>
		</linearGradient>
		<path fill="url(#SVGID_39_)" d="M124.718,95.604v3.696h-2.337v-3.592c0-0.24-0.071-0.438-0.216-0.586
			c-0.143-0.148-0.339-0.223-0.591-0.223h-2.896v4.4h-2.348v-8.19c0-1.197,0.388-2.216,1.161-3.053
			c0.819-0.855,1.866-1.283,3.139-1.283c0.786,0,1.512,0.18,2.176,0.537c0.667,0.358,1.187,0.844,1.565,1.448
			c0.38,0.605,0.568,1.261,0.568,1.965c0,1.229-0.42,2.185-1.266,2.867C124.369,94.028,124.718,94.698,124.718,95.604z
			 M120.686,92.767c0.599,0,1.066-0.17,1.405-0.51c0.336-0.338,0.504-0.799,0.504-1.379c0-0.352-0.081-0.669-0.244-0.955
			c-0.163-0.282-0.387-0.508-0.677-0.672c-0.291-0.165-0.624-0.246-1.006-0.246c-0.631,0-1.12,0.2-1.469,0.605
			c-0.349,0.4-0.521,0.9-0.521,1.499v1.657H120.686z"/>
		<linearGradient id="SVGID_40_" gradientUnits="userSpaceOnUse" x1="129.8955" y1="-9.8735" x2="129.8955" y2="102.9989">
			<stop  offset="0" style="stop-color:#D4D4D4"/>
			<stop  offset="0.5521" style="stop-color:#999999"/>
			<stop  offset="1" style="stop-color:#DEDEDE"/>
		</linearGradient>
		<path fill="url(#SVGID_40_)" d="M134.335,89.256h-3.287v10.045h-2.326V89.256h-3.266v-2.171h8.879V89.256z"/>
		<linearGradient id="SVGID_41_" gradientUnits="userSpaceOnUse" x1="139.8516" y1="-9.8779" x2="139.8516" y2="102.9993">
			<stop  offset="0" style="stop-color:#D4D4D4"/>
			<stop  offset="0.5521" style="stop-color:#999999"/>
			<stop  offset="1" style="stop-color:#DEDEDE"/>
		</linearGradient>
		<path fill="url(#SVGID_41_)" d="M139.82,86.755c0.773,0,1.463,0.116,2.064,0.345c0.603,0.229,1.097,0.535,1.479,0.917
			c0.385,0.383,0.672,0.81,0.86,1.283c0.188,0.473,0.285,0.967,0.285,1.476h-2.324c0-0.354-0.097-0.672-0.285-0.949
			c-0.188-0.278-0.461-0.498-0.814-0.659c-0.356-0.159-0.776-0.24-1.263-0.24c-0.42,0-0.81,0.053-1.168,0.159
			c-0.361,0.106-0.651,0.27-0.871,0.489c-0.221,0.222-0.33,0.477-0.33,0.763c0,0.27,0.091,0.492,0.279,0.673
			c0.184,0.184,0.469,0.336,0.843,0.464c0.379,0.125,0.901,0.256,1.562,0.394c0.77,0.144,1.446,0.312,2.026,0.502
			c0.583,0.192,1.074,0.426,1.472,0.703c0.399,0.276,0.708,0.621,0.919,1.034c0.216,0.416,0.323,0.938,0.323,1.563
			c0,0.584-0.117,1.116-0.352,1.592c-0.234,0.475-0.575,0.882-1.016,1.216c-0.44,0.336-0.978,0.593-1.608,0.769
			c-0.632,0.18-1.324,0.268-2.08,0.268c-0.835,0-1.632-0.158-2.397-0.473c-0.769-0.315-1.396-0.794-1.879-1.437
			c-0.48-0.642-0.72-1.429-0.72-2.357h2.323c0,0.671,0.275,1.194,0.82,1.57c0.547,0.376,1.163,0.562,1.851,0.562
			c0.471,0,0.913-0.057,1.333-0.176c0.415-0.118,0.754-0.299,1.014-0.546c0.255-0.246,0.384-0.554,0.384-0.92
			c0-0.402-0.211-0.731-0.631-0.99c-0.417-0.258-1.168-0.49-2.253-0.696c-0.654-0.131-1.237-0.274-1.748-0.43
			c-0.51-0.154-0.978-0.373-1.41-0.649c-0.428-0.28-0.77-0.637-1.014-1.071c-0.244-0.437-0.371-0.964-0.371-1.584
			c0-0.688,0.195-1.306,0.582-1.851c0.388-0.546,0.938-0.967,1.652-1.265C138.071,86.905,138.891,86.755,139.82,86.755z"/>
	</g>
</g>
</svg>
